<?xml version="1.0" standalone="no"?>
<!DOCTYPE svg PUBLIC "-//W3C//DTD SVG 20010904//EN"
 "http://www.w3.org/TR/2001/REC-SVG-20010904/DTD/svg10.dtd">
<svg version="1.0" xmlns="http://www.w3.org/2000/svg"
 width="1400.000000pt" height="1400.000000pt" viewBox="0 0 1400.000000 1400.000000"
 preserveAspectRatio="xMidYMid meet">
<metadata>
Created by potrace 1.11, written by Peter Selinger 2001-2013
</metadata>
<g transform="translate(0.000000,1400.000000) scale(0.100000,-0.100000)"
fill="#000000" stroke="none">
<path d="M5533 11633 c-25 -10 -12 -76 43 -226 107 -289 175 -535 214 -777 36
-227 27 -305 -63 -494 -107 -223 -273 -497 -647 -1066 -372 -565 -404 -628
-404 -800 -1 -101 1 -109 42 -209 106 -261 297 -535 540 -775 l100 -99 144 16
c79 9 177 25 219 36 158 42 381 143 630 287 345 199 811 500 904 585 66 61 85
59 98 -12 30 -160 -79 -821 -219 -1339 -53 -193 -176 -580 -186 -580 -4 0
-146 43 -315 96 -565 175 -1462 440 -1858 548 -675 184 -1200 175 -1634 -25
-248 -115 -546 -379 -636 -564 -42 -84 -33 -155 19 -155 31 0 126 48 246 125
345 219 702 317 1095 302 209 -8 361 -38 576 -113 200 -69 355 -151 653 -342
398 -255 748 -435 1228 -632 137 -56 170 -87 148 -141 -17 -43 -218 -240 -335
-329 -390 -297 -1076 -570 -1615 -645 -157 -22 -721 -31 -935 -16 -518 38
-837 153 -1125 406 -107 94 -175 137 -224 142 -57 7 -76 -13 -76 -75 0 -66 43
-135 154 -250 367 -380 868 -624 1551 -756 340 -66 652 -91 1034 -83 449 9
777 61 1143 181 471 154 952 424 1270 711 166 150 226 201 262 220 l33 18 69
-32 c255 -119 1049 -667 1530 -1056 208 -169 358 -280 585 -432 717 -482 1446
-876 1751 -948 163 -38 249 1 284 131 14 51 16 90 11 206 -4 121 -11 165 -41
280 -99 381 -325 813 -599 1142 -198 238 -388 371 -727 509 -421 170 -1611
722 -2125 985 l-210 107 -3 51 c-3 47 19 142 93 409 61 219 75 408 75 1008 l0
428 -68 102 c-123 183 -220 388 -301 635 -62 189 -66 171 42 230 117 65 552
277 679 331 203 86 317 120 521 155 147 26 239 52 283 80 68 45 114 162 121
306 6 113 -11 197 -61 303 -82 176 -287 374 -455 438 -106 40 -387 36 -516 -8
-31 -10 -71 -38 -114 -78 -96 -89 -126 -107 -451 -268 -162 -81 -380 -191
-485 -247 -104 -55 -193 -100 -197 -100 -19 0 -3 46 66 185 83 167 120 279
134 411 10 88 3 205 -16 269 -93 311 -624 751 -1297 1076 -379 183 -580 251
-652 222z"/>
</g>
</svg>
