<svg xmlns="http://www.w3.org/2000/svg" fill="none" viewBox="0 0 62 47"><path fill="#000" d="M15.5.875c1.208.458 2.375.688 3.5.688.167.333.25.604.25.812 0 .708-.083 1.52-.25 2.438l5 .062c.583-.208 1.25-.417 2-.625l2.438 1.125v5l3.25.375c1.375.208 2.208.708 2.5 1.5-.5.75-1.334 1.667-2.5 2.75-.959-.458-2.021-.688-3.188-.688-.292.75-.75 1.542-1.375 2.376-.5.666-.98 1.312-1.438 1.937-.375.417-1.125.708-2.25.875a11.982 11.982 0 00-3.812-.625c-.375 0-.77.02-1.188.063l-.125 2.187c.334 0 1.355.063 3.063.188 1.583.125 2.458.187 2.625.187l2.313-.25c1.208-.125 2.229.52 3.062 1.938l-.563 2 .25 1.375a5.765 5.765 0 01-.812 2.062l-2 .375c-.5 0-1.5-.167-3-.5-1.292-.25-2.27-.333-2.938-.25.417.75.959 1.917 1.625 3.5 1.75.083 3.521.188 5.313.313 2.25.25 3.833.791 4.75 1.624-.458.792-1.27 1.417-2.438 1.876-1.166.416-1.875.833-2.125 1.25-1.541-.709-3.083-1.126-4.625-1.25-1.25.291-2.562 1.187-3.937 2.687 1.792.917 3.75 1.48 5.875 1.688 1.917.166 3.375.229 4.375.187l.25 1.438c-1 1.416-2.646 2.729-4.938 3.937-2.041-1.208-5.187-2.77-9.437-4.688-4.375 3.209-8.083 4.813-11.125 4.813A3.258 3.258 0 011.937 45c-.583-.417-.854-.98-.812-1.688v-.124c.917-1.084 2.625-1.876 5.125-2.376 2.833-.583 4.833-1.312 6-2.187-.625-.667-1.063-1.167-1.313-1.5-.458-.583-.77-1.146-.937-1.688l-.938-.187c-.291.167-1.604.542-3.937 1.125-1.625.417-2.688 1.146-3.188 2.188l-1.625-.25-.25-4 1.375-1.438 1.438.563c.917-.376 2.104-.646 3.563-.813a279.58 279.58 0 003.562-.5l1.5-2.938a15.102 15.102 0 00-6.063.75l-1.375-.75-.187-.937.375-3.125-.313-1.313L5.5 22h.875c.583.042 1.833-.063 3.75-.313 1.958-.25 3.25-.375 3.875-.375.375 0 .646.021.813.063l-.063-1.938c-.292-.416-.813-.625-1.563-.625-2.583 0-5.062.667-7.437 2l-1.188-2.437L5 15.187c-.417 0-1.042.126-1.875.376-.833.208-1.458.312-1.875.312-.25 0-.5-.042-.75-.125a3.172 3.172 0 01-.125-.875c0-.667.167-1.354.5-2.063 1.5-.374 2.875-.791 4.125-1.25l-.125-3.25L4.312 7l.875-1.625h1.625c.25 0 .605.042 1.063.125.5.042.875.063 1.125.063 1.375 0 3.438-.23 6.188-.688L15 3.25l-.813-1.188L15.5.875zM18.625 8c-.042.167-.063.417-.063.75s.021.75.063 1.25l3.625-.188 3.188.188.062-1.938c-1.458-.124-2.688-.187-3.688-.187H21c-.75 0-1.542.042-2.375.125zM8.25 8.875l-.313 2.25c2.5-.417 4.792-.75 6.875-1L14.75 8.25c-1.917 0-4.083.208-6.5.625zm10.313 4.5l-.313 1.75c1.375.125 2.604.188 3.688.188h.75c.416 0 .916-.021 1.5-.063.416-.25.645-.75.687-1.5-1.375-.333-2.73-.5-4.063-.5-.75 0-1.5.042-2.25.125zM7.75 14.5v1.625c1.875-.125 4.25-.417 7.125-.875l.188-1.75h-.75c-2.084-.042-4.271.292-6.563 1zm10.438 9.063L18 25.25c1.833.042 4.583.208 8.25.5l.063-.875-.375-.875c-2.667-.333-4.834-.48-6.5-.438h-1.25zm-10.75 1.125c-.209.5-.313 1.104-.313 1.812 3.75-.625 6.188-.938 7.313-.938l-.25-1.625c-1.126.042-2.25.105-3.376.188-1.374.083-2.5.27-3.374.563zm8.187 4.125l-2.563 2.937a35.24 35.24 0 015.563-.063c-.75-1.291-1.75-2.25-3-2.875zm-2.313 6.625c.75.583 1.563 1.333 2.438 2.25 1.292-.542 2.25-1.376 2.875-2.5a37.381 37.381 0 00-2.063-.063c-1.291 0-2.375.104-3.25.313zM37.876 1.812L40.5 3.438c.708.5 1.208 1.459 1.5 2.876-.125.291-.438.75-.938 1.375-.333.458-.541 1.083-.624 1.875l.437.562c1.083-.25 2.292-.375 3.625-.375h10.375c1.5 0 2.75.375 3.75 1.125v1.063c-.375.124-.98.624-1.813 1.5-.958 1.041-1.624 1.687-2 1.937-3.75-.792-5.937-1.188-6.562-1.188-.333 0-.604.021-.813.063-1.25-.167-2.25-.25-3-.25-2.708 0-4.708.938-6 2.813-.541 0-1.312.645-2.312 1.937-.958 1.292-1.98 1.896-3.063 1.813l-.5-.063c-.5-.333-.874-.854-1.124-1.563 3.916-5.708 5.875-10.083 5.875-13.125l-.563-2.875.313-.937.812-.188zm10.313 15.376c.583.458 1.833 1.062 3.75 1.812.083.375.124.708.124 1 0 .458-.229.833-.687 1.125-.417.292-.813.583-1.188.875C46.73 25.083 45 27.417 45 29c4.667 5.875 10.02 9.208 16.063 10l-.25 1.5c-1.334 1.583-2.855 3.52-4.563 5.813h-.313c-.874.041-1.708-.271-2.5-.938-2.083-1.75-4.812-4.77-8.187-9.063-.625-.791-1.625-1.916-3-3.374a302.816 302.816 0 00-4.188 5.937c-1.958 2.542-3.77 3.813-5.437 3.813-1.125 0-1.938-.667-2.438-2 .5-.876 1.292-1.667 2.375-2.376 1.709-1.083 2.646-1.687 2.813-1.812.708-.583 1.542-1.625 2.5-3.125 1-1.542 1.77-2.583 2.313-3.125-.959-1.375-2.376-3.063-4.25-5.063l-.813.375c-.125-1-.188-1.625-.188-1.875 0-1.166.563-2.187 1.688-3.062 2.25 3.125 4.188 5.188 5.813 6.188 1.541-2 2.874-4.438 4-7.313l-.376-.625c.334-.833 1.042-1.396 2.126-1.688z"/></svg>
