<svg xmlns="http://www.w3.org/2000/svg" fill="none" viewBox="0 0 222 317"><path fill="#000" d="M92.55 8.516c-12.8 8.7-24.9 15.3-28.1 15.3-3.4 0-13.9 7.1-22.5 15.2-9.5 9.1-14.9 16.4-20.4 27.7-7.2 14.9-7.9 17.6-11 39.6-.6 4.4-1.5 10.7-2 14-.5 3.3-1.4 9.5-1.9 13.7-.6 4.3-1.6 11.3-2.2 15.5-.5 4.3-1.5 10.6-2.1 14-.7 4.5-.7 7.1.1 9.6.9 2.6.9 5.8.2 11.9-.6 4.5-1.5 12.6-2.1 17.8-1.5 12.5 0 21.8 5.3 32.8 2.2 4.5 6.3 8.2 9.1 8.2 2.6 0 8.2-13.2 9.4-22 .6-4.1 1.6-12.9 2.2-19.5.6-6.6 1.5-14.9 2-18.5.5-3.6 1.4-10.8 2-16 4.1-37.7 10.6-79.5 14.2-91 2.9-9.4 13.7-19.5 28.3-26.5 5.1-2.5 9.8-4.5 10.4-4.5.6 0 1.9-.4 2.9-1 .9-.5 5.1-1.9 9.2-3 4.1-1.2 8.901-2.5 10.601-3.1 6.4-1.9 17.4-.3 28.4 4.3 1.4.6 3.4 1.4 4.5 1.8 1.1.4 8.5 3.9 16.5 7.7 8 3.8 15.9 7.5 17.7 8.2 8.4 3.4 14.9 20.9 19.2 52.1 2.5 18.3 3.2 26.5 3.6 41.5.2 8.8.8 18.9 1.3 22.5.5 3.6.6 8.8.3 11.7-.5 3.6-.1 7.6 1.2 13.5 1.1 4.8 2.2 14.5 2.6 23.3.9 18.9 2.5 23 8.8 22.3 7.4-.8 11.4-24.6 11.2-66.5-.1-13.7-.1-26.4-.1-28.3.5-26.7-1.7-51.2-5.3-56.9-.3-.7-.1-3.3.5-5.9 1.1-4.3 1-5.6-1.3-13.2-3.8-12.3-8.7-19.9-20.7-32.1-8.2-8.3-11.9-11.2-17-13.6-10.1-4.8-23.8-9.3-43-14.1-5.9-1.5-7.3-2.4-14.6-9.4-10.8-10.3-11-10.3-27.4.9z"/><path fill="#000" d="M86.55 59.016c-2.7 4.5-4.7 11.8-5.5 20.5-.8 8.2-1.2 8.8-8 13.3-2.7 1.9-8.3 6-12.2 9.2l-7.3 5.9v5.7c0 8.1 1.9 10.6 7.5 9.9 6.3-.9 13.5-3.6 18.2-6.8 4.2-2.9 7.7-3.7 8.8-1.9.3.5-3.5 13.3-8.6 28.3l-9.1 27.4 1.2 7.2c1.4 8.2 2.8 10.1 7.4 10.1 4.3 0 9.6 1.8 12.1 4.1 1.1 1 3.8 2.5 6 3.5 9.001 3.7 12.101 5.3 13.901 7.3 1.9 2.1 1.9 2.2-1 5.2-4.1 4.3-7.8 6.4-16.9 9.4-19.3 6.5-31.5 15-31.5 21.9 0 2.3 4.7 4.3 12.3 5.1 6.1.6 7.9.3 18.5-3 6.4-2 14.2-4.7 17.2-6 3-1.3 7.8-2.7 10.5-3 7.4-1 7.7-.2 8.7 24.5 1.4 35.8 3.5 54.7 6.6 58.2 3.7 4.4 11.8.2 14.6-7.5 1.3-3.6 1.5-9.3 1.2-38.2-.2-19.4-.8-37-1.5-41-2.8-16.9-2.8-16.6 1.8-23.4 7-10.2 8.4-14.4 8.5-24.7 0-5.1-.5-10.2-1.1-11.5-.6-1.3-2.3-5-3.8-8.1-2.6-5.6-8.5-14.1-14.2-20.4-1.5-1.7-6.8-5.3-11.7-8-10.1-5.6-15-10.4-14-13.7 1.6-5.2 2.6-5.4 14.4-2.7 12.2 2.8 25.3 4.8 35.8 5.7 6.7.5 7.5.4 9.7-1.7 3.2-3 3.4-9 .5-13-2.2-3.1-9.7-7-13.4-7-1.4 0-3.5-.4-4.8-.9-1.3-.5-4.3-1.5-6.8-2.1-6.4-1.8-22.1-6.9-24.5-8-1.1-.5-4.5-2-7.5-3.3-6.9-3-8.4-4.8-10-11.7-1.9-8-3.6-11.6-7.2-15-2.6-2.5-3.9-3-8-3-4.4 0-5 .3-6.8 3.2zm31.001 93.2c8.4 4.9 15.1 11.2 17.6 16.4 1.6 3.4 1.5 11.6-.1 14.2-1.2 2-4.3.9-12-4.2-8.1-5.2-20.3-10.8-23.6-10.8-2.4 0-2.5-4-.4-10.1 1.6-4.3 3.4-6.6 7-8.7 3-1.7 3.4-1.6 11.5 3.2z"/></svg>
