<svg xmlns="http://www.w3.org/2000/svg" fill="none" viewBox="0 0 58 44"><path fill="#000" d="M30.875 5.813c0-.334-.23-.834-.688-1.5-.458-.709-.687-1.292-.687-1.75.625-1.084 2.125-1.667 4.5-1.75L35.313 2c.708.667 2.02 1.188 3.937 1.563l3.375.374c2.083.417 5.23.855 9.438 1.313 1.083 0 2.791.938 5.124 2.813l.063.874c-.208.542-.646 1.23-1.313 2.063-.624.833-1.041 1.458-1.25 1.875-.416.792-.874 2.042-1.374 3.75-.459 1.708-.917 2.958-1.376 3.75-.416.75-1.208 1.75-2.374 3-3.376 3.5-8.063 5.75-14.063 6.75a462.793 462.793 0 01-.313 7.438c-.333 3.833-1.062 5.916-2.187 6.25-.667-.584-1.146-1.5-1.438-2.75-.458-1.667-.687-3.75-.687-6.25.042 4.583.063 2.458.063-6.376 0-.583-.063-4.354-.188-11.312-.083-4.542-.042-8.313.125-11.313zm5.25 2.875c-.333 2.416-.5 7.708-.5 15.874 7.75-.75 12.354-5.125 13.813-13.125-5.334-1.5-9.771-2.416-13.313-2.75zM18.312.124a6.18 6.18 0 01.875-.063c1.167 0 2.438.23 3.813.688 1.375.458 2.438 1.063 3.188 1.813.041.25.062.5.062.75 0 1.124-.396 1.937-1.188 2.437-.291.167-1.479.458-3.562.875-.75.25-1.854.542-3.313.875l-3.625.563c-1.124.166-2.791.291-5 .374-2.208.042-3.812.126-4.812.25L4.375 8C5 6.792 7.145 5.604 10.813 4.437c3.666-1.166 5.874-2.375 6.624-3.625l.875-.687zm-11.25 11.25c.625 0 1.334.23 2.125.688 1.042.624 1.73.979 2.063 1.062l.563 1.125c0 .375-.376 1.125-1.126 2.25 1.25 0 3.105-.167 5.563-.5 2.458-.333 4.313-.5 5.563-.5 2.166 0 3.729.333 4.687 1l.063.25c0 .458-.25.917-.75 1.375-.25.292-.625.688-1.125 1.188-.792.583-2.292.937-4.5 1.062-3.375.167-6.625.458-9.75.875v7.563c2.083-.334 4.145-.646 6.187-.938 2.458-.375 4.542-.563 6.25-.563 3.292 0 5.125.5 5.5 1.5-.375.709-1.208 1.48-2.5 2.313-1.5.917-2.458 1.604-2.875 2.063-1.333-.167-2.854-.25-4.563-.25-3.666 0-6.5.229-8.5.687a17.831 17.831 0 00-7.562 3.813c-.375-.126-.646-.271-.813-.438-.625-.458-.937-1.813-.937-4.063 0-1.25.625-2.02 1.875-2.312l1 .375 2.125-1.25c.208-2.208.313-4.396.313-6.563 0-2.458-.105-4.583-.313-6.375-.042-.333-.292-.875-.75-1.625s-.688-1.333-.688-1.75c0-1.374.959-2.062 2.875-2.062z"/></svg>
