<svg xmlns="http://www.w3.org/2000/svg" fill="none" viewBox="0 0 59 46"><path fill="#000" d="M31.5 5.5c4.958.375 7.667.583 8.125.625 3.083.375 5.688 1.083 7.813 2.125L48.124 6l.563-.188c.916.25 1.854.521 2.812.813 1.042.417 1.563 1.146 1.563 2.188l-.313 1.624.688 2.626c-.084.124-.167.833-.25 2.124-.084 1-.459 1.646-1.126 1.938-1.5-.333-2.437-1.813-2.812-4.438h-.625c-1.167.042-2.875-.208-5.125-.75-2.25-.583-3.917-.874-5-.874-.083 0-.25.041-.5.124-.25.042-.396.063-.438.063l-8.062-.813c-.958-.083-2.604-.02-4.938.188-2.291.167-3.854.375-4.687.625-.958-.208-1.48-.313-1.563-.313l-1.937.813c-.625.125-1.542.313-2.75.563-2.458.583-4.104 1.52-4.938 2.812-.374 1.083-1.166 2.646-2.374 4.688l-1.438-.438c-.5-.792-.75-1.583-.75-2.375 0-2.875.542-5.792 1.625-8.75.833 0 2.292.354 4.375 1.063 5.292-1.75 10.333-2.771 15.125-3.063l.063-.438c0-.5-.105-1.125-.313-1.875a43.834 43.834 0 00-.563-1.812c.125-.333.188-.75.188-1.25l.125-.188c2.458 0 4.063.188 4.813.563 1.291.625 1.937 2.042 1.937 4.25zm10.125 7.188c.208.333.958.666 2.25 1 1.042.25 1.667.958 1.875 2.124l-.25.75-3.938 2.125-1.062-.125c-2 .584-4.146 1.667-6.438 3.25 1.084.584 2.084 1.438 3 2.563.917 1.125 1.5 1.77 1.75 1.938.292.125 1.042.187 2.25.187 1.209 0 2.938.292 5.188.875 2.417.625 4.146.958 5.188 1 1.083.042 2.5.063 4.25.063 1.083 0 2.187.291 3.312.875l-.563 1.937L54 34.938c-2.125-.792-4.27-1.584-6.438-2.376-3.041-1.083-5.145-1.624-6.312-1.624L39 31.25c-.667 1.792-1.354 3.104-2.063 3.938-.666.833-2.229 2.104-4.687 3.812-2.458 1.708-4.208 2.73-5.25 3.063-1 .291-2.542.77-4.625 1.437-.708.292-1.917.625-3.625 1s-2.875.563-3.5.563c-.375 0-.917-.021-1.625-.063H12c-1 0-1.73-.167-2.188-.5-.458-.375-.895-1.063-1.312-2.063.5-1.291 2.563-2.374 6.188-3.25l10.374-2.562c4-1.333 6.605-3.167 7.813-5.5l-.5-.688-1.375.125c-.458 0-1.167-.02-2.125-.062-.917-.083-1.625-.125-2.125-.125-3.25 0-7.5.48-12.75 1.438-6 1.125-9.896 2.375-11.688 3.75l-1.062-.188c-.292-.458-.354-.917-.188-1.375l-.375-1.563.5-1.124a4.208 4.208 0 01-.062-.688c0-.458.125-.813.375-1.063l2-.312c.708-.125 1.354-.02 1.938.313 5.666-2.084 13.458-3.125 23.375-3.125 1.375 0 2.645-.063 3.812-.188-.625-1.375-1.708-2.063-3.25-2.063-2.833 0-4.77.396-5.813 1.188-1.291-.5-1.937-1.313-1.937-2.438 0-.958.563-1.75 1.688-2.375l1.562.5c.375-.208 1.583-.77 3.625-1.687a100.11 100.11 0 012.938-1.563l-2.25-.312c-1.459 0-3.355.27-5.688.813-2.792.625-4.688.979-5.688 1.062a.695.695 0 00-.312-.063c-.292 0-.708.25-1.25.75s-.958.709-1.25.625c-.25.042-.48.063-.688.063-.458 0-.791-.125-1-.375a4.135 4.135 0 01-.187-1.188c0-1.25.438-2.541 1.313-3.875L15 15.25l1.875.25c3.167-1.333 6.938-2 11.313-2 5.291 0 8.562.125 9.812.375 1.333-.667 2.542-1.063 3.625-1.188z"/></svg>
